<?xml version="1.0" encoding="UTF-8"?>
<!DOCTYPE svg PUBLIC "-//W3C//DTD SVG 1.1//EN" "http://www.w3.org/Graphics/SVG/1.1/DTD/svg11.dtd">
<!-- Creator: CorelDRAW 2018 (64-Bit) -->
<svg xmlns="http://www.w3.org/2000/svg" xml:space="preserve" width="512px" height="512px" version="1.1" style="shape-rendering:geometricPrecision; text-rendering:geometricPrecision; image-rendering:optimizeQuality; fill-rule:evenodd; clip-rule:evenodd"
viewBox="0 0 512 512"
 xmlns:xlink="http://www.w3.org/1999/xlink">
 <defs>
  <style type="text/css">
   <![CDATA[
    .fil7 {fill:#062C36;fill-rule:nonzero}
    .fil2 {fill:url(#id0)}
    .fil3 {fill:url(#id1)}
    .fil1 {fill:url(#id2)}
    .fil6 {fill:url(#id3)}
    .fil5 {fill:url(#id4)}
    .fil0 {fill:url(#id5)}
    .fil4 {fill:url(#id6)}
   ]]>
  </style>
  <linearGradient id="id0" gradientUnits="userSpaceOnUse" x1="120.69" y1="187.41" x2="221.68" y2="376.4">
   <stop offset="0" style="stop-opacity:1; stop-color:#125D72"/>
   <stop offset="1" style="stop-opacity:1; stop-color:#062C36"/>
  </linearGradient>
  <linearGradient id="id1" gradientUnits="userSpaceOnUse" xlink:href="#id0" x1="120.69" y1="187.41" x2="221.68" y2="376.4">
  </linearGradient>
  <linearGradient id="id2" gradientUnits="userSpaceOnUse" xlink:href="#id0" x1="120.69" y1="187.41" x2="221.68" y2="376.4">
  </linearGradient>
  <linearGradient id="id3" gradientUnits="userSpaceOnUse" x1="315.45" y1="265.32" x2="417.88" y2="494.7">
   <stop offset="0" style="stop-opacity:1; stop-color:#43CEE6"/>
   <stop offset="1" style="stop-opacity:1; stop-color:#062C36"/>
  </linearGradient>
  <linearGradient id="id4" gradientUnits="userSpaceOnUse" x1="341.42" y1="304.27" x2="413.55" y2="443.03">
   <stop offset="0" style="stop-opacity:1; stop-color:#EFE62F"/>
   <stop offset="1" style="stop-opacity:1; stop-color:#F8941E"/>
  </linearGradient>
  <linearGradient id="id5" gradientUnits="userSpaceOnUse" xlink:href="#id4" x1="345.75" y1="97.97" x2="423.65" y2="188.86">
  </linearGradient>
  <linearGradient id="id6" gradientUnits="userSpaceOnUse" xlink:href="#id3" x1="315.45" y1="265.32" x2="417.88" y2="494.7">
  </linearGradient>
 </defs>
 <g id="Layer_x0020_1">
  <metadata id="CorelCorpID_0Corel-Layer"/>
  <g id="_1873169676368">
   <path class="fil0" d="M267.9 59.98l97.78 0c10.3,0 18.72,8.43 18.72,18.72l0 34.85 21.36 36.99 -51 -10.46 -71.24 0c-3.9,-18.22 -17.1,-33.1 -34.34,-39.36l0 -22.02c0,-10.29 8.42,-18.72 18.72,-18.72z"/>
   <g>
    <path class="fil1" d="M126.65 104.36c60.6,0 109.73,49.13 109.73,109.73 0,60.61 -49.13,109.74 -109.73,109.74 -60.61,0 -109.74,-49.13 -109.74,-109.74 0,-60.6 49.13,-109.73 109.74,-109.73zm0 29.68c44.2,0 80.04,35.84 80.04,80.05 0,44.21 -35.84,80.05 -80.04,80.05 -44.21,0 -80.05,-35.84 -80.05,-80.05 0,-44.21 35.84,-80.05 80.05,-80.05z"/>
    <path class="fil2" d="M6.58 329.73l25.72 -52.77c10.64,15.81 24.98,28.92 41.76,38.11l0.32 0.33 -67.8 14.33z"/>
    <path class="fil3" d="M161.28 104.49l62.37 0c29.2,0 53.08,23.89 53.08,53.08l0 43.81 -37.78 0c-3.95,-44.04 -37.43,-85.7 -85.3,-96.33 2.5,-0.36 5.04,-0.56 7.63,-0.56zm75.05 217.94c-4.07,1 -8.31,1.54 -12.68,1.54l-62.37 0c-1.34,0 -2.68,-0.05 -4,-0.15 37.63,-11.31 71.06,-43.76 79.05,-80.18l0 78.79z"/>
   </g>
   <g>
    <polygon class="fil4" points="244.75,210.86 269.72,210.86 324.72,210.86 324.72,235.83 269.72,235.83 269.72,291.48 324.72,291.48 324.72,315.4 269.72,315.4 269.72,392.9 244.75,392.9 244.75,315.4 244.75,291.48 244.75,235.83 "/>
    <polygon class="fil5" points="354.52,365.89 436.17,365.89 436.17,392.9 328.51,392.9 328.51,365.89 328.51,210.86 354.52,210.86 "/>
    <path class="fil6" d="M357.98 210.86l86.77 0c18.73,0 34.89,17.98 34.89,36.45l0 106.48 25.78 52.71 -62.65 -13.6 -3.42 0 0 -31.27 -81.13 0 0 -117.18 -0.24 -33.59z"/>
   </g>
   <path class="fil7" d="M47.04 413.28c5.12,0 9.39,2.38 12.83,7.11 1.56,2.7 2.34,5.42 2.34,8.15 0,5.07 -2.29,9.28 -6.86,12.64 -2.61,1.65 -5.33,2.48 -8.17,2.48l-0.31 0c-5.23,0 -9.48,-2.43 -12.78,-7.28 -1.5,-2.46 -2.25,-5.12 -2.25,-7.98 0,-4.85 2.13,-8.92 6.38,-12.23 2.77,-1.92 5.71,-2.89 8.82,-2.89zm-11 15.34c0,3.51 1.56,6.47 4.67,8.89 1.93,1.29 3.98,1.95 6.16,1.95l0.39 0c3.42,0 6.33,-1.54 8.72,-4.6 1.35,-1.95 2.03,-4.08 2.03,-6.4 0,-3.97 -1.83,-7.11 -5.47,-9.43 -1.79,-1.03 -3.62,-1.54 -5.5,-1.54 -3.64,0 -6.65,1.59 -9.05,4.75 -1.3,1.87 -1.95,4 -1.95,6.38zm30.81 -6.97c1.32,0.34 1.97,0.98 1.97,1.9l0 0.31c1.62,-1.48 3.82,-2.21 6.59,-2.21 3.04,0 5.73,1.26 8.07,3.78 1.72,2.11 2.57,4.34 2.57,6.68l0 9.65c0,1.01 -0.67,1.64 -2,1.9l-0.21 0c-1.33,-0.25 -1.99,-0.93 -1.99,-2.06l0 -8.49c0,-3.53 -1.5,-5.84 -4.5,-6.93 -0.72,-0.19 -1.38,-0.29 -1.94,-0.29l-0.23 0c-2.5,0 -4.45,1.31 -5.83,3.93 -0.35,0.77 -0.53,2.07 -0.53,3.9l0 7.97c0,1.08 -0.66,1.74 -1.99,1.97l-0.15 0c-1.11,0 -1.8,-0.7 -2.06,-2.08l0 -17.62c0.17,-1.54 0.9,-2.31 2.23,-2.31zm23.75 -8.2l0.37 0c1.28,0.27 1.92,0.88 1.92,1.83l0 24.18 1 0c0.99,0 1.62,0.66 1.91,2.01l0 0.15c-0.23,1.36 -0.92,2.04 -2.07,2.04l-2.96 0c-1.13,0 -1.82,-0.7 -2.08,-2.08l0 -25.9c0.16,-1.49 0.8,-2.23 1.91,-2.23zm10.64 2.83c1.34,0.34 2.01,0.98 2.01,1.91l0 0.45c0,1.07 -0.72,1.7 -2.17,1.9 -1.04,0 -1.72,-0.7 -2.05,-2.12 0.28,-1.43 1.02,-2.14 2.21,-2.14zm0 5.24c1.34,0.33 2.01,0.97 2.01,1.9l0 18.25c0,1.09 -0.68,1.76 -2.03,1.99l-0.12 0c-1.11,0 -1.79,-0.7 -2.05,-2.08l0 -17.75c0.16,-1.54 0.9,-2.31 2.19,-2.31zm8.3 0.13c1.31,0.34 1.97,0.98 1.97,1.9l0 0.31c1.62,-1.48 3.82,-2.21 6.58,-2.21 3.05,0 5.74,1.26 8.08,3.78 1.71,2.11 2.57,4.34 2.57,6.68l0 9.65c0,1.01 -0.67,1.64 -2,1.9l-0.21 0c-1.33,-0.25 -2,-0.93 -2,-2.06l0 -8.49c0,-3.53 -1.49,-5.84 -4.49,-6.93 -0.73,-0.19 -1.38,-0.29 -1.95,-0.29l-0.22 0c-2.5,0 -4.45,1.31 -5.83,3.93 -0.35,0.77 -0.53,2.07 -0.53,3.9l0 7.97c0,1.08 -0.66,1.74 -1.99,1.97l-0.15 0c-1.12,0 -1.8,-0.7 -2.06,-2.08l0 -17.62c0.17,-1.54 0.9,-2.31 2.23,-2.31zm31.46 -0.04c4.23,0 7.53,2.01 9.87,6.03 0.81,1.58 1.22,3.29 1.22,5.14l0 0.44c-0.24,1.38 -0.93,2.07 -2.05,2.07l-15.21 0c0.38,1.34 1.49,2.5 3.3,3.47 1.07,0.41 2.08,0.61 3.01,0.61 1.08,0 2.38,-0.38 3.9,-1.14l0.65 0c1.27,0.25 1.91,0.91 1.91,2l0 0.22c0,1.6 -2.01,2.67 -6.03,3.21l-0.57 0c-3.96,0 -7.12,-1.85 -9.51,-5.55 -0.96,-1.75 -1.44,-3.58 -1.44,-5.49 0,-4.04 1.9,-7.25 5.71,-9.63 1.85,-0.93 3.6,-1.38 5.24,-1.38zm-6.54 9.48l13.3 0c0,-0.5 -0.56,-1.5 -1.68,-3.01 -1.52,-1.43 -3.01,-2.15 -4.47,-2.15l-0.84 0c-2.21,0 -4.04,1.1 -5.48,3.28 -0.5,0.86 -0.78,1.49 -0.83,1.88zm30.37 -18.1l1.06 0.21 14.98 0 0.3 -0.08c1.29,0 2.04,0.77 2.24,2.33 -0.29,1.33 -1.05,2 -2.3,2l-13.51 0 0 9.15 8.62 0 1.09 -0.08c1.03,0 1.71,0.7 2.01,2.1 0,0.99 -0.58,1.73 -1.74,2.22l-1.67 -0.08 -8.31 0 0 10.29 0.11 0.55c-0.33,1.37 -1.03,2.06 -2.1,2.06l-0.23 0c-1.35,-0.25 -2.02,-0.94 -2.02,-2.08l0 -26.35c0.2,-1.35 0.69,-2.03 1.47,-2.03l0 -0.21zm28.96 8.74c2.83,0 5.39,1.07 7.67,3.21 2.18,2.3 3.27,4.88 3.27,7.75 0,4.11 -1.93,7.34 -5.8,9.68 -1.7,0.86 -3.33,1.29 -4.92,1.29l-0.61 0c-2.95,0 -5.69,-1.38 -8.22,-4.15 -1.56,-2.2 -2.33,-4.47 -2.33,-6.82 0,-3.56 1.56,-6.55 4.7,-8.95 2.01,-1.34 4.09,-2.01 6.24,-2.01zm-6.7 10.74l0 0.37c0,2.54 1.23,4.5 3.68,5.9 0.86,0.45 1.79,0.67 2.8,0.67l0.44 0c2.61,0 4.62,-1.36 6.01,-4.09 0.31,-0.84 0.47,-1.67 0.47,-2.48l0 -0.37c0,-2.11 -0.97,-3.88 -2.91,-5.34 -1.12,-0.77 -2.41,-1.16 -3.88,-1.16 -2.85,0 -4.95,1.51 -6.28,4.53 -0.22,0.7 -0.33,1.36 -0.33,1.97zm22.54 -10.99c1.32,0.34 1.99,0.98 1.99,1.91l0 0.32c1.67,-1.49 3.87,-2.23 6.56,-2.23 1.45,0 3.02,0.37 4.71,1.1 0.58,0.59 0.88,1.17 0.88,1.72l0 0.15c-0.23,1.32 -0.92,1.99 -2.06,1.99l-0.18 0c-1.39,-0.45 -2.41,-0.67 -3.05,-0.67l-0.44 0c-2.74,0 -4.75,1.42 -6.01,4.27 -0.28,0.74 -0.41,1.61 -0.41,2.6l0 9.03c0,1.09 -0.68,1.76 -2.04,1.99l-0.11 0c-1.11,0 -1.8,-0.7 -2.06,-2.08l0 -17.76c0.16,-1.56 0.91,-2.34 2.22,-2.34zm33.3 19.93c-1.91,1.5 -4.02,2.25 -6.32,2.25l-0.53 0c-3.36,0 -6.28,-1.64 -8.75,-4.92 -1.14,-1.77 -1.71,-3.95 -1.71,-6.5l0 -8.36c0.17,-1.55 0.9,-2.32 2.23,-2.32 1.32,0.34 1.98,0.98 1.98,1.91l0 8.15c0,3.24 0.9,5.41 2.7,6.5 1.16,0.89 2.45,1.34 3.86,1.34 2.69,0 4.73,-1.4 6.12,-4.19 0.28,-0.91 0.42,-1.82 0.42,-2.74l0 -8.89c0.27,-1.38 1.01,-2.08 2.21,-2.08 1.33,0.3 1.99,0.99 1.99,2.06l0 18.12c0,1.02 -0.66,1.66 -1.99,1.92l-0.21 0c-1.33,-0.25 -2,-0.93 -2,-2.06l0 -0.19zm8.88 -19.43c1.01,0 1.66,0.44 1.94,1.34 1.1,-0.9 2.69,-1.34 4.78,-1.34 2.76,0 4.98,1.03 6.67,3.09 0.59,-1.09 2.22,-2.04 4.9,-2.85l1.79 -0.24c3.38,0 6.03,1.6 7.97,4.8 0.65,1.34 0.97,2.63 0.97,3.86l0 11.14c0,1 -0.66,1.62 -1.97,1.88l-0.18 0c-1.31,-0.23 -1.97,-0.91 -1.97,-2.04l0 -10.82c0,-2.17 -1.13,-3.67 -3.41,-4.49l-0.94 -0.13 -0.72 0c-1.8,0 -3.18,1.06 -4.15,3.18 -0.12,0.44 -0.18,0.82 -0.18,1.14l0 11.12c-0.24,1.36 -0.91,2.04 -2.01,2.04l-0.14 0c-1.31,-0.23 -1.97,-0.88 -1.97,-1.96l0 -9.19c0,-2.37 -0.29,-3.83 -0.87,-4.37 -0.98,-1.31 -2.22,-1.96 -3.74,-1.96l-0.22 0c-2.09,0 -3.56,1.13 -4.41,3.38 -0.13,0.54 -0.2,1.28 -0.2,2.22l0 9.92c0,1.08 -0.66,1.73 -1.97,1.96l-0.12 0c-1.09,0 -1.77,-0.68 -2.03,-2.04l0 -17.34c0.15,-1.54 0.87,-2.3 2.18,-2.3zm43.8 -8.65l0.37 0c1.28,0.27 1.93,0.88 1.93,1.83l0 24.3 11.92 0c1.18,0 1.87,0.74 2.09,2.25 -0.39,1.3 -1.09,1.95 -2.09,1.95l-14.05 0c-1.13,0 -1.82,-0.7 -2.08,-2.1l0 -25.98c0.16,-1.5 0.8,-2.25 1.91,-2.25zm28.36 8.28c4.24,0 7.53,2.01 9.88,6.03 0.81,1.58 1.22,3.29 1.22,5.14l0 0.44c-0.25,1.38 -0.93,2.07 -2.06,2.07l-15.21 0c0.39,1.34 1.49,2.5 3.31,3.47 1.07,0.41 2.07,0.61 3.01,0.61 1.08,0 2.38,-0.38 3.89,-1.14l0.66 0c1.26,0.25 1.9,0.91 1.9,2l0 0.22c0,1.6 -2.01,2.67 -6.03,3.21l-0.57 0c-3.95,0 -7.12,-1.85 -9.51,-5.55 -0.96,-1.75 -1.44,-3.58 -1.44,-5.49 0,-4.04 1.9,-7.25 5.71,-9.63 1.86,-0.93 3.61,-1.38 5.24,-1.38zm-6.54 9.48l13.31 0c0,-0.5 -0.56,-1.5 -1.69,-3.01 -1.51,-1.43 -3,-2.15 -4.47,-2.15l-0.83 0c-2.22,0 -4.05,1.1 -5.49,3.28 -0.49,0.86 -0.77,1.49 -0.83,1.88zm22.79 1.41l0 0.22c0,2.78 1.39,4.86 4.17,6.25 0.87,0.33 1.65,0.49 2.34,0.49l0.58 0c2.3,0 4.2,-1.16 5.7,-3.47 0.54,-1.08 0.81,-2.12 0.81,-3.1l0 -0.31c0,-2.66 -1.31,-4.71 -3.95,-6.12 -0.91,-0.41 -1.85,-0.61 -2.84,-0.61l-0.08 0c-2.8,0 -4.91,1.46 -6.32,4.38 -0.27,0.89 -0.41,1.65 -0.41,2.27zm13.6 8.83c-1.65,1.55 -3.82,2.33 -6.53,2.33l-0.59 0c-3.73,0 -6.84,-1.88 -9.32,-5.61 -0.91,-1.82 -1.36,-3.64 -1.36,-5.47 0,-4.09 2,-7.33 6.01,-9.73 1.71,-0.8 3.37,-1.2 5,-1.2 4.16,0 7.45,2.03 9.88,6.09 0.74,1.67 1.12,3.39 1.12,5.15l0 8.8c0,1.08 -0.67,1.74 -2,1.97l-0.15 0c-0.92,0 -1.61,-0.54 -2.06,-1.63l0 -0.23 0 -0.47zm10.82 -19.85c1.33,0.34 1.99,0.98 1.99,1.91l0 0.32c1.68,-1.49 3.87,-2.23 6.56,-2.23 1.45,0 3.02,0.37 4.72,1.1 0.58,0.59 0.87,1.17 0.87,1.72l0 0.15c-0.23,1.32 -0.91,1.99 -2.05,1.99l-0.18 0c-1.4,-0.45 -2.42,-0.67 -3.05,-0.67l-0.45 0c-2.74,0 -4.74,1.42 -6.01,4.27 -0.27,0.74 -0.41,1.61 -0.41,2.6l0 9.03c0,1.09 -0.68,1.76 -2.03,1.99l-0.12 0c-1.11,0 -1.79,-0.7 -2.05,-2.08l0 -17.76c0.16,-1.56 0.9,-2.34 2.21,-2.34zm18.39 0.17c1.32,0.34 1.98,0.98 1.98,1.9l-0.01 0.31c1.62,-1.48 3.82,-2.21 6.59,-2.21 3.04,0 5.73,1.26 8.08,3.78 1.71,2.11 2.56,4.34 2.56,6.68l0 9.65c0,1.01 -0.66,1.64 -2,1.9l-0.2 0c-1.33,-0.25 -2,-0.93 -2,-2.06l0 -8.49c0,-3.53 -1.5,-5.84 -4.49,-6.93 -0.73,-0.19 -1.38,-0.29 -1.95,-0.29l-0.22 0c-2.51,0 -4.46,1.31 -5.84,3.93 -0.35,0.77 -0.52,2.07 -0.52,3.9l0 7.97c0,1.08 -0.67,1.74 -2,1.97l-0.15 0c-1.11,0 -1.8,-0.7 -2.05,-2.08l0 -17.62c0.16,-1.54 0.9,-2.31 2.22,-2.31zm24.78 -5.37c1.34,0.34 2.01,0.98 2.01,1.91l0 0.45c0,1.07 -0.72,1.7 -2.16,1.9 -1.05,0 -1.73,-0.7 -2.06,-2.12 0.29,-1.43 1.02,-2.14 2.21,-2.14zm0 5.24c1.34,0.33 2.01,0.97 2.01,1.9l0 18.25c0,1.09 -0.67,1.76 -2.03,1.99l-0.11 0c-1.11,0 -1.8,-0.7 -2.06,-2.08l0 -17.75c0.16,-1.54 0.9,-2.31 2.19,-2.31zm8.3 0.13c1.32,0.34 1.97,0.98 1.97,1.9l0 0.31c1.62,-1.48 3.82,-2.21 6.58,-2.21 3.05,0 5.74,1.26 8.08,3.78 1.72,2.11 2.57,4.34 2.57,6.68l0 9.65c0,1.01 -0.67,1.64 -2,1.9l-0.21 0c-1.33,-0.25 -1.99,-0.93 -1.99,-2.06l0 -8.49c0,-3.53 -1.5,-5.84 -4.5,-6.93 -0.73,-0.19 -1.38,-0.29 -1.95,-0.29l-0.22 0c-2.5,0 -4.45,1.31 -5.83,3.93 -0.35,0.77 -0.53,2.07 -0.53,3.9l0 7.97c0,1.08 -0.66,1.74 -1.99,1.97l-0.15 0c-1.12,0 -1.8,-0.7 -2.06,-2.08l0 -17.62c0.17,-1.54 0.9,-2.31 2.23,-2.31zm31.56 0.04c3.26,0 6.09,1.35 8.48,4.06 1.65,2.26 2.48,4.41 2.48,6.44l-0.08 2.55 0 9.12c0,1.9 -1.39,3.93 -4.16,6.07 -2.13,1.39 -4.36,2.09 -6.69,2.09 -3.98,0 -7.27,-1.77 -9.87,-5.31 -0.52,-0.87 -0.77,-1.49 -0.77,-1.85l0 -0.23c0,-0.99 0.63,-1.62 1.9,-1.91l0.29 0c0.96,0 1.72,0.74 2.26,2.2 1.65,2.07 3.71,3.11 6.19,3.11 2.97,0 5.19,-1.33 6.66,-3.98l0.11 -0.82 0 -1.97c-1.67,1.54 -3.86,2.31 -6.58,2.31l-0.61 0c-2.95,0 -5.7,-1.38 -8.23,-4.14 -1.56,-2.19 -2.35,-4.45 -2.35,-6.8 0,-3.56 1.58,-6.54 4.73,-8.93 2,-1.34 4.08,-2.01 6.24,-2.01zm-6.81 10.72l0 0.37c0,2.81 1.49,4.91 4.46,6.29 0.78,0.23 1.49,0.34 2.12,0.34l0.45 0c2.76,0 4.84,-1.47 6.25,-4.42 0.22,-0.88 0.33,-1.57 0.33,-2.05l0 -0.47c0,-2.81 -1.5,-4.9 -4.5,-6.29 -0.94,-0.22 -1.66,-0.33 -2.16,-0.33l-0.29 0c-2.75,0 -4.84,1.46 -6.25,4.37 -0.27,0.8 -0.41,1.52 -0.41,2.19z"/>
  </g>
 </g>
</svg>
